<svg width="40" height="41" viewBox="0 0 40 41" fill="none" xmlns="http://www.w3.org/2000/svg">
<path d="M30.1408 8.3042C27.1008 8.3974 27.1016 12.771 30.1408 12.8634C33.1808 12.7702 33.18 8.3966 30.1408 8.3042ZM20 10.9434C14.612 10.9434 10.2444 15.3226 10.2444 20.7246C10.7584 33.6994 29.2432 33.6958 29.7552 20.7246C29.7556 15.3226 25.3876 10.9434 20 10.9434ZM20 27.0738C16.5028 27.0738 13.6676 24.231 13.6676 20.7246C14.0012 12.3026 26.0004 12.3046 26.3328 20.7246C26.3324 24.2314 23.4972 27.0738 20 27.0738Z" fill="white"/>
<path d="M38.8832 12.8919C38.7424 6.22506 34.5008 1.98106 27.8324 1.84146C26.2312 1.68706 13.7696 1.68426 12.1672 1.84146C5.50039 1.98226 1.25639 6.22386 1.11679 12.8923C0.962389 14.4911 0.959189 26.9567 1.11679 28.5575C1.24119 35.2027 5.52119 39.4839 12.1672 39.6079C13.7684 39.7639 26.23 39.7639 27.8324 39.6079C29.8544 39.5155 31.2356 39.1943 32.444 38.7247C36.6788 37.0331 38.748 33.2703 38.8832 28.5571C39.0376 26.9559 39.0404 14.4943 38.8832 12.8919ZM27.6764 36.1883C26.1008 36.3387 13.9 36.3411 12.3232 36.1883C10.4712 36.1039 9.46519 35.7943 8.79559 35.5343C3.01599 32.8535 4.80799 27.4323 4.53559 19.9911C4.54159 18.2627 4.53199 14.7767 4.53599 13.0483C4.76679 7.89546 7.19359 5.50986 12.3232 5.26106C13.9008 5.11066 26.0984 5.10826 27.6764 5.26106C32.8308 5.49186 35.214 7.91866 35.4636 13.0479C35.5656 14.2795 35.6396 21.0027 35.4636 24.4051C35.6536 30.7955 35.3624 35.8135 27.6764 36.1883Z" fill="white"/>
</svg>
