<svg width="40" height="41" viewBox="0 0 40 41" fill="none" xmlns="http://www.w3.org/2000/svg">
<path d="M36.1916 1.72984C30.3472 1.71344 8.7908 1.74104 3.8084 1.72984C2.258 1.72984 1 2.94944 1 4.45144V37.0038C1 38.5062 2.258 39.7246 3.8084 39.7246H36.1916C37.7428 39.7246 39 38.5062 39 37.0034V4.45144C39 2.94944 37.7428 1.72984 36.1916 1.72984Z" fill="white"/>
<path d="M21.3812 33.5266C21.3812 33.5266 21.3812 23.9754 21.3812 23.975C21.3256 22.2198 22.3748 20.5818 24.486 20.5082C26.5432 20.5082 27.3664 22.0766 27.3664 24.3762V33.5262H33.052V23.7186C33.052 18.4646 30.2472 16.0198 26.506 16.0198C23.4388 16.0198 22.0916 17.7338 21.3432 18.9014L21.3812 16.4214H15.6956C15.7696 18.0262 15.6952 33.5266 15.6952 33.5266H21.3812ZM12.548 26.109V16.421H6.86161V33.5262H12.5484C12.5472 31.7302 12.5504 27.8798 12.548 26.109ZM9.70601 14.0862C11.6884 14.0862 12.9228 12.7726 12.9228 11.1314C12.9064 7.17258 6.52121 7.21658 6.52641 11.131C6.52201 12.785 7.79041 14.1066 9.70601 14.0862Z" fill="#292929"/>
</svg>
