<svg width="386" height="107" viewBox="0 0 386 107" fill="none" xmlns="http://www.w3.org/2000/svg">
<path d="M0 55.8742L5.3125 0.874207H23.9688L29.1875 55.8742H18.7812L18 46.9992H11.375L10.6875 55.8742H0ZM12.1562 38.218H17.1562L14.75 10.2492H14.25L12.1562 38.218Z" fill="#292929"/>
<path d="M32.5625 55.8742V0.874207H43.875L48.9375 27.218V0.874207H59.5625V55.8742H48.8125L43.3125 28.3742V55.8742H32.5625Z" fill="#292929"/>
<path d="M64.4375 55.8742V0.874207H79.5625C83.5208 0.874207 86.5 1.97837 88.5 4.18671C90.5 6.37421 91.5 9.58254 91.5 13.8117V39.5617C91.5 44.77 90.5833 48.7909 88.75 51.6242C86.9375 54.4575 83.75 55.8742 79.1875 55.8742H64.4375ZM75.5 46.1555H77.4062C79.4271 46.1555 80.4375 45.1763 80.4375 43.218V14.843C80.4375 13.0096 80.1875 11.8325 79.6875 11.3117C79.2083 10.77 78.2188 10.4992 76.7188 10.4992H75.5V46.1555Z" fill="#292929"/>
<path d="M96 55.8742V0.874207H112.875C115.688 0.874207 117.812 1.52004 119.25 2.81171C120.688 4.08254 121.646 5.87421 122.125 8.18671C122.625 10.4784 122.875 13.1763 122.875 16.2805C122.875 19.2805 122.49 21.6763 121.719 23.468C120.969 25.2596 119.542 26.4992 117.438 27.1867C119.167 27.5409 120.375 28.4055 121.062 29.7805C121.771 31.1346 122.125 32.895 122.125 35.0617V55.8742H111.281V34.343C111.281 32.7388 110.948 31.7492 110.281 31.3742C109.635 30.9784 108.583 30.7805 107.125 30.7805V55.8742H96ZM107.188 21.2492H109.844C111.365 21.2492 112.125 19.593 112.125 16.2805C112.125 14.1346 111.958 12.7284 111.625 12.0617C111.292 11.395 110.667 11.0617 109.75 11.0617H107.188V21.2492Z" fill="#292929"/>
<path d="M126.5 55.8742V0.874207H148.5V11.4992H137.688V22.218H148.062V32.5617H137.688V45.1555H149.219V55.8742H126.5Z" fill="#292929"/>
<path d="M151.375 55.8742L156.688 0.874207H175.344L180.562 55.8742H170.156L169.375 46.9992H162.75L162.062 55.8742H151.375ZM163.531 38.218H168.531L166.125 10.2492H165.625L163.531 38.218Z" fill="#292929"/>
<path d="M198.938 55.8742V0.874207H215.688L220.312 34.4055L224.906 0.874207H241.812V55.8742H231.75V16.2492L225.438 55.8742H215.562L208.875 16.2492V55.8742H198.938Z" fill="#292929"/>
<path d="M246.688 55.8742V0.874207H268.688V11.4992H257.875V22.218H268.25V32.5617H257.875V45.1555H269.406V55.8742H246.688Z" fill="#292929"/>
<path d="M273.062 55.8742V0.874207H284.375L289.438 27.218V0.874207H300.062V55.8742H289.312L283.812 28.3742V55.8742H273.062Z" fill="#292929"/>
<path d="M304.938 55.8742V0.874207H320.062C324.021 0.874207 327 1.97837 329 4.18671C331 6.37421 332 9.58254 332 13.8117V39.5617C332 44.77 331.083 48.7909 329.25 51.6242C327.438 54.4575 324.25 55.8742 319.688 55.8742H304.938ZM316 46.1555H317.906C319.927 46.1555 320.938 45.1763 320.938 43.218V14.843C320.938 13.0096 320.688 11.8325 320.188 11.3117C319.708 10.77 318.719 10.4992 317.219 10.4992H316V46.1555Z" fill="#292929"/>
<path d="M336.5 55.8742V0.874207H358.5V11.4992H347.688V22.218H358.062V32.5617H347.688V45.1555H359.219V55.8742H336.5Z" fill="#292929"/>
<path d="M361.438 55.8742V45.8742L374.031 10.9992H362.656V0.874207H385.625V10.4992L372.812 45.7492H385.094V55.8742H361.438Z" fill="#292929"/>
<path fill-rule="evenodd" clip-rule="evenodd" d="M66 106.874H0V85.8742H66V106.874Z" fill="#A87FF3"/>
</svg>
