<svg width="281" height="108" viewBox="0 0 281 108" fill="none" xmlns="http://www.w3.org/2000/svg">
<path d="M0.108521 56.2485V1.24854H16.8585L21.4835 34.7798L26.0773 1.24854H42.9835V56.2485H32.921V16.6235L26.6085 56.2485H16.7335L10.046 16.6235V56.2485H0.108521Z" fill="#292929"/>
<path d="M54.5148 56.2485V38.1548L45.7335 1.24854H56.6398L59.7023 19.8735L62.7648 1.24854H73.6398L64.8898 38.1548V56.2485H54.5148Z" fill="#292929"/>
<path d="M91.421 56.2485V1.24854H102.359V20.9048H107.546V1.24854H118.484V56.2485H107.546V31.311H102.359V56.2485H91.421Z" fill="#292929"/>
<path d="M122.859 56.2485V1.24854H133.484V56.2485H122.859Z" fill="#292929"/>
<path d="M150.921 56.7485C145.9 56.7485 142.275 55.4985 140.046 52.9985C137.838 50.4985 136.734 46.5194 136.734 41.061V35.686H147.609V42.561C147.609 43.8319 147.796 44.8319 148.171 45.561C148.567 46.2694 149.244 46.6235 150.202 46.6235C151.202 46.6235 151.89 46.3319 152.265 45.7485C152.661 45.1652 152.859 44.2069 152.859 42.8735C152.859 41.186 152.692 39.7798 152.359 38.6548C152.025 37.509 151.442 36.4256 150.609 35.4048C149.796 34.3631 148.661 33.1548 147.202 31.7798L142.265 27.0923C138.577 23.6131 136.734 19.634 136.734 15.1548C136.734 10.4673 137.817 6.89437 139.984 4.43604C142.171 1.9777 145.327 0.748535 149.452 0.748535C154.494 0.748535 158.067 2.09229 160.171 4.77979C162.296 7.46729 163.359 11.5506 163.359 17.0298H152.171V13.2485C152.171 12.4985 151.952 11.9152 151.515 11.4985C151.098 11.0819 150.525 10.8735 149.796 10.8735C148.921 10.8735 148.275 11.1235 147.859 11.6235C147.463 12.1027 147.265 12.7277 147.265 13.4985C147.265 14.2694 147.473 15.1027 147.89 15.9985C148.306 16.8944 149.129 17.9256 150.359 19.0923L156.702 25.186C157.973 26.3944 159.14 27.6756 160.202 29.0298C161.265 30.3631 162.119 31.9256 162.765 33.7173C163.411 35.4881 163.734 37.6548 163.734 40.2173C163.734 45.384 162.775 49.436 160.859 52.3735C158.963 55.2902 155.65 56.7485 150.921 56.7485Z" fill="#292929"/>
<path d="M172.14 56.2485V11.811H165.609V1.24854H189.671V11.811H183.14V56.2485H172.14Z" fill="#292929"/>
<path d="M205.859 56.7485C201.463 56.7485 198.098 55.4256 195.765 52.7798C193.452 50.1131 192.296 46.2694 192.296 41.2485V15.1235C192.296 10.4152 193.442 6.84229 195.734 4.40479C198.046 1.96729 201.421 0.748535 205.859 0.748535C210.296 0.748535 213.661 1.96729 215.952 4.40479C218.265 6.84229 219.421 10.4152 219.421 15.1235V41.2485C219.421 46.2694 218.254 50.1131 215.921 52.7798C213.609 55.4256 210.254 56.7485 205.859 56.7485ZM205.952 46.6235C207.619 46.6235 208.452 45.009 208.452 41.7798V14.936C208.452 12.2277 207.64 10.8735 206.015 10.8735C204.181 10.8735 203.265 12.259 203.265 15.0298V41.8423C203.265 43.5506 203.473 44.7798 203.89 45.5298C204.306 46.259 204.994 46.6235 205.952 46.6235Z" fill="#292929"/>
<path d="M223.859 56.2485V1.24854H240.734C243.546 1.24854 245.671 1.89437 247.109 3.18604C248.546 4.45687 249.504 6.24854 249.984 8.56104C250.484 10.8527 250.734 13.5506 250.734 16.6548C250.734 19.6548 250.348 22.0506 249.577 23.8423C248.827 25.634 247.4 26.8735 245.296 27.561C247.025 27.9152 248.234 28.7798 248.921 30.1548C249.629 31.509 249.984 33.2694 249.984 35.436V56.2485H239.14V34.7173C239.14 33.1131 238.806 32.1235 238.14 31.7485C237.494 31.3527 236.442 31.1548 234.984 31.1548V56.2485H223.859ZM235.046 21.6235H237.702C239.223 21.6235 239.984 19.9673 239.984 16.6548C239.984 14.509 239.817 13.1027 239.484 12.436C239.15 11.7694 238.525 11.436 237.609 11.436H235.046V21.6235Z" fill="#292929"/>
<path d="M261.015 56.2485V38.1548L252.234 1.24854H263.14L266.202 19.8735L269.265 1.24854H280.14L271.39 38.1548V56.2485H261.015Z" fill="#292929"/>
<path fill-rule="evenodd" clip-rule="evenodd" d="M66.1085 107.749H0.108521V86.7485H66.1085V107.749Z" fill="#A87FF3"/>
</svg>
