<svg width="40" height="41" viewBox="0 0 40 41" fill="none" xmlns="http://www.w3.org/2000/svg">
<path d="M38.5684 9.17337C37.2016 9.78057 35.7332 10.189 34.192 10.3734C35.766 9.43057 36.9728 7.93817 37.5412 6.15857C36.07 7.03137 34.4392 7.66537 32.702 8.00817C31.3124 6.52697 29.3328 5.60137 27.1416 5.60137C22.2984 5.53657 18.5748 10.2682 19.7208 14.9554C13.3892 14.6382 7.77601 11.6046 4.01681 6.99377C1.96521 10.3394 3.13001 15.1238 6.37521 17.1662C5.12681 17.1262 3.95121 16.7834 2.92441 16.2134C2.87681 19.9354 5.51721 23.0778 9.03601 23.779C7.95481 24.0806 6.70921 24.1278 5.59521 23.9102C6.56521 26.9366 9.37881 29.1406 12.7124 29.2018C9.69841 31.6102 5.47881 32.8658 1.43201 32.357C17.7048 42.3718 35.694 29.251 34.7652 13.1166C36.2544 12.0414 37.5472 10.7002 38.5684 9.17337Z" fill="white"/>
</svg>
